Coordinates
version=1
nRows=6
nColumns=63
inDegrees=yes

Units are S.I. units (second, meters, Newtons, ...)
If the header above contains a line with 'inDegrees', this indicates whether rotational values are in degrees (yes) or radians (no).

endheader
time	pelvis_tilt	pelvis_list	pelvis_rotation	pelvis_tx	pelvis_ty	pelvis_tz	hip_flexion_r	hip_adduction_r	hip_rotation_r	knee_angle_r	knee_angle_r_beta	ankle_angle_r	subtalar_angle_r	mtp_angle_r	hip_flexion_l	hip_adduction_l	hip_rotation_l	knee_angle_l	knee_angle_l_beta	ankle_angle_l	subtalar_angle_l	mtp_angle_l	L5_S1_Flex_Ext	L5_S1_Lat_Bending	L5_S1_axial_rotation	L4_L5_Flex_Ext	L4_L5_Lat_Bending	L4_L5_axial_rotation	L3_L4_Flex_Ext	L3_L4_Lat_Bending	L3_L4_axial_rotation	L2_L3_Flex_Ext	L2_L3_Lat_Bending	L2_L3_axial_rotation	L1_L2_Flex_Ext	L1_L2_Lat_Bending	L1_L2_axial_rotation	L1_T12_Flex_Ext	L1_T12_Lat_Bending	L1_T12_axial_rotation	Abs_r3	Abs_r2	Abs_r1	Abs_t1	Abs_t2	neck_flexion	neck_bending	neck_rotation	arm_flex_r	arm_add_r	arm_rot_r	elbow_flex_r	pro_sup_r	wrist_flex_r	wrist_dev_r	arm_flex_l	arm_add_l	arm_rot_l	elbow_flex_l	pro_sup_l	wrist_flex_l	wrist_dev_l
      1.12962963	      0.66255026	     -3.78041754	     90.97180380	      0.22691346	      0.92265159	      0.62977648	      5.00158116	      0.55159547	     -6.59693017	     10.71593512	      0.18702835	     26.64363032	      8.58387136	      0.00000000	      2.40621398	     -1.27850894	     -7.88985430	      4.85837691	      0.08479467	     21.81080747	      5.68495430	      0.00000000	      0.15361547	     -0.04459691	      1.20628612	      0.28527929	     -0.05931389	      1.28167901	      0.25237485	     -0.10843292	      1.28167901	      0.17556712	     -0.10843292	      1.05550036	      0.14264732	     -0.09094201	      0.98010748	      0.08777588	     -0.06908061	      0.90471459	      1.09725994	     -0.50448912	      6.70900153	      0.00000000	      0.00000000	     15.29393194	      3.11343983	     -5.79984736	      7.37741393	     -7.11580814	     49.99485788	     42.51767207	     33.18085518	      0.78864282	     13.97437836	     11.94794746	     -7.16073797	     49.62100606	     37.23022684	     68.24219762	     12.02219590	      5.68989092
      1.14814815	      0.66177582	     -3.81984666	     90.96551195	      0.22674576	      0.92237121	      0.63089300	      5.07529433	      0.54805379	     -6.49960568	     10.63380651	      0.18559494	     26.55684497	      8.44895775	      0.00000000	      2.56782118	     -1.28758607	     -7.77817698	      4.91948539	      0.08586122	     22.06237933	      5.69581782	      0.00000000	      0.14200821	     -0.04113498	      1.25627467	      0.26372345	     -0.05470952	      1.33479184	      0.23330529	     -0.10001559	      1.33479184	      0.16230119	     -0.10001559	      1.09924034	      0.13186883	     -0.08388245	      1.02072317	      0.08114349	     -0.06371808	      0.94220601	      1.01435046	     -0.46532710	      6.98702285	      0.00000000	      0.00000000	     15.47101214	      2.97930665	     -6.01042603	      7.47237318	     -7.22133307	     50.18386563	     42.12798982	     34.03307178	      1.25405356	     12.96644432	     12.37548251	     -6.99918910	     50.32957182	     36.76590127	     66.98111221	     10.89565793	      5.97490284
      1.16666667	      0.64219849	     -3.93809346	     90.82860935	      0.22657134	      0.92207781	      0.63202735	      5.25613267	      0.51219028	     -6.37018996	     10.57719393	      0.18460686	     26.41147419	      8.45169127	      0.00000000	      2.79745102	     -1.27836524	     -7.86676819	      4.98043427	      0.08692498	     22.40966885	      5.83646556	      0.00000000	      0.14157605	     -0.03802869	      1.30390682	      0.26292089	     -0.05057816	      1.38540100	      0.23259530	     -0.09246297	      1.38540100	      0.16180727	     -0.09246297	      1.14091847	      0.13146752	     -0.07754811	      1.05942429	      0.08089656	     -0.05890645	      0.97793012	      1.01126359	     -0.43018819	      7.25193858	      0.00000000	      0.00000000	     15.65748743	      2.83157641	     -6.11473581	      7.55002034	     -7.32593120	     50.34242777	     41.79478137	     34.77201038	      1.75019104	     12.17888065	     12.69638723	     -6.80676701	     50.70797089	     36.30493214	     65.99021126	      9.88470569	      6.11958397
      1.18518519	      0.67813522	     -4.06750784	     90.55735853	      0.22648004	      0.92183848	      0.63326375	      5.49519122	      0.52791416	     -6.20943781	     10.59605937	      0.18493612	     26.24447143	      8.63074736	      0.00000000	      3.02193042	     -1.30584688	     -7.52469125	      5.01335484	      0.08749955	     22.67788116	      5.20954747	      0.00000000	      0.13893956	     -0.02817074	      1.36107618	      0.25802465	     -0.03746708	      1.44614344	      0.22826380	     -0.06849434	      1.44614344	      0.15879402	     -0.06849434	      1.19094166	      0.12901927	     -0.05744577	      1.10587439	      0.07939006	     -0.04363648	      1.02080713	      0.99243135	     -0.31867305	      7.56989738	      0.00000000	      0.00000000	     15.93020994	      2.53365615	     -6.34504879	      7.75451818	     -7.49681736	     50.69926051	     41.31429136	     36.08416329	      2.98711175	     11.09799587	     13.05160946	     -6.62445898	     51.29591657	     35.88569641	     65.03398442	      8.77774694	      6.02263437
      1.20370370	      0.56992034	     -4.26175866	     90.60337708	      0.22625194	      0.92159902	      0.63408161	      5.69392341	      0.41608523	     -6.02838977	     10.47174157	      0.18276637	     26.04910864	      8.34871638	      0.00000000	      3.31578129	     -1.19780313	     -7.37658149	      5.03411330	      0.08786185	     22.88587482	      5.19192242	      0.00000000	      0.15590462	     -0.03939245	      1.33027292	      0.28953048	     -0.05239196	      1.41341498	      0.25613571	     -0.09577880	      1.41341498	      0.17818339	     -0.09577880	      1.16398880	      0.14477303	     -0.08032908	      1.08084675	      0.08908390	     -0.06101890	      0.99770469	      1.11361113	     -0.44561525	      7.39857889	      0.00000000	      0.00000000	     15.93832064	      2.65040969	     -6.11145111	      7.82701282	     -7.53279283	     50.85118453	     41.20458907	     37.40258582	      2.75775800	     10.69692821	     13.17578891	     -6.70152513	     51.78362611	     35.85590643	     63.50004784	      7.62423632	      6.39149257
      1.22222222	      0.52699633	     -4.32992977	     90.62456272	      0.22607030	      0.92152199	      0.63504640	      5.77954551	      0.37465301	     -5.81688626	     10.37549475	      0.18108654	     25.80696057	      8.07146933	      0.00000000	      3.48644790	     -1.16299254	     -7.09705590	      5.08919313	      0.08882318	     23.09552703	      5.15378438	      0.00000000	      0.14840401	     -0.04369930	      1.31977825	      0.27560109	     -0.05812007	      1.40226439	      0.24381295	     -0.10625049	      1.40226439	      0.16961094	     -0.10625049	      1.15480597	      0.13780796	     -0.08911162	      1.07231983	      0.08479805	     -0.06769022	      0.98983369	      1.06003501	     -0.49433526	      7.34021069	      0.00000000	      0.00000000	     16.00893854	      2.65273155	     -6.16044714	      8.03632886	     -7.64747890	     51.04982031	     40.98423816	     38.60624340	      2.97947333	     10.24706588	     13.39517131	     -6.67256614	     52.19761362	     35.67447558	     62.70655203	      7.21176196	      6.54980541
